# File created by Blade
# Date/Time:  Thu Jan 22 19:49:01 2015
# Frame Rate: 120.000 fps
#------------------------------------------------------
:FULLY-SPECIFIED
:DEGREES
2889
root -2.026443 3.317688 -9.420171 -28.509579 -22.077975 0.078957
RightUpLeg -75.624687 31.059884 58.689292
RightLeg 109.844857 -0.000000 -0.000000
RightFoot 16.078397 -2.537183 -13.788380
RightToeBase 3.393172 -0.000000 -0.000000
LeftUpLeg -55.779940 11.364115 15.235616
LeftLeg 2.006099 -0.000000 -0.000000
LeftFoot 22.889923 7.478401 -12.070407
LeftToeBase -0.238874 -0.000000 0.000000
Spine 53.119846 -44.716366 -38.001191
RightShoulder -16.072294 -15.209674 -15.070470
RightArm 18.357113 -44.558075 70.222396
RightForeArm 7.066363 -0.000000 25.288065
RightHand 0.675208 -0.000000 1.695672
RightHandThumb1 -24.326973 -0.000000 -32.862282
LeftShoulder 2.177165 -20.343100 25.579256
LeftArm 67.024841 62.638229 -10.872010
LeftForeArm 27.100534 0.000000 74.033472
LeftHand 7.084996 -0.000000 -17.645303
LeftHandThumb1 -26.253704 0.000000 33.147579
Head -14.315885 -64.359152 18.631158
2890
root -2.026271 3.317035 -9.420213 -28.487134 -22.066914 0.071964
RightUpLeg -75.637027 31.057967 58.687084
RightLeg 109.845027 -0.000000 -0.000000
RightFoot 16.053618 -2.541509 -13.809537
RightToeBase 3.418290 -0.000000 -0.000000
LeftUpLeg -55.804089 11.360681 15.233185
LeftLeg 2.008730 -0.000000 -0.000000
LeftFoot 22.886227 7.495201 -12.052557
LeftToeBase -0.246934 -0.000000 0.000000
Spine 53.088899 -44.703340 -37.957330
RightShoulder -16.050755 -15.177170 -15.106796
RightArm 18.241170 -44.511649 70.422890
RightForeArm 6.984603 -0.000000 25.151949
RightHand 0.780172 -0.000000 1.489026
RightHandThumb1 -24.326973 -0.000000 -32.862282
LeftShoulder 2.201333 -20.372101 25.579868
LeftArm 67.064548 62.631785 -10.870473
LeftForeArm 27.026218 -0.000000 73.985147
LeftHand 7.102794 -0.000000 -17.657076
LeftHandThumb1 -26.253704 0.000000 33.147579
Head -14.473850 -64.342198 18.756922
2891
root -2.026982 3.316652 -9.420201 -28.465555 -22.059303 0.064630
RightUpLeg -75.641243 31.053010 58.698729
RightLeg 109.842932 -0.000000 -0.000000
RightFoot 16.039240 -2.557636 -13.852018
RightToeBase 3.436387 -0.000000 -0.000000
LeftUpLeg -55.835476 11.378497 15.208080
LeftLeg 2.015603 -0.000000 -0.000000
LeftFoot 22.882175 7.500431 -12.056137
LeftToeBase -0.187061 -0.000000 0.000000
Spine 53.059059 -44.686034 -37.915825
RightShoulder -16.037441 -15.182682 -15.115261
RightArm 18.182538 -44.403813 70.577146
RightForeArm 6.975751 -0.000000 25.004457
RightHand 0.921857 -0.000000 1.753645
RightHandThumb1 -24.326973 -0.000000 -32.862282
LeftShoulder 2.214283 -20.383440 25.577831
LeftArm 67.127411 62.603952 -10.839606
LeftForeArm 26.922139 -0.000000 73.936392
LeftHand 7.111748 0.000000 -17.671643
LeftHandThumb1 -26.253704 0.000000 33.147579
Head -14.613900 -64.331609 18.871945
2892
root -2.027917 3.315567 -9.420512 -28.432310 -22.056171 0.046832
RightUpLeg -75.651830 31.053955 58.714892
RightLeg 109.836058 -0.000000 -0.000000
RightFoot 16.038839 -2.566088 -13.878435
RightToeBase 3.426952 -0.000000 -0.000000
LeftUpLeg -55.871601 11.390415 15.205386
LeftLeg 2.020011 -0.000000 -0.000000
LeftFoot 22.876716 7.511432 -12.055336
LeftToeBase -0.155288 -0.000000 0.000000
Spine 53.033959 -44.687343 -37.873549
RightShoulder -16.003525 -15.119194 -15.158920
RightArm 18.014932 -44.296215 70.822463
RightForeArm 6.890513 -0.000000 24.875987
RightHand 0.968123 -0.000000 1.677501
RightHandThumb1 -24.326973 -0.000000 -32.862282
LeftShoulder 2.217630 -20.409067 25.569632
LeftArm 67.172715 62.594177 -10.805928
LeftForeArm 26.811084 -0.000000 73.908363
LeftHand 7.142468 0.000000 -17.667268
LeftHandThumb1 -26.253704 0.000000 33.147579
Head -14.763416 -64.291832 18.986929
2893
root -2.027564 3.316054 -9.420362 -28.418855 -22.041795 0.039993
RightUpLeg -75.660509 31.048817 58.712916
RightLeg 109.837733 -0.000000 -0.000000
RightFoot 16.027132 -2.572089 -13.924607
RightToeBase 3.395665 -0.000000 -0.000000
LeftUpLeg -55.884664 11.379410 15.204310
LeftLeg 2.016282 -0.000000 -0.000000
LeftFoot 22.877422 7.556430 -12.081530
LeftToeBase -0.145137 -0.000000 0.000000
Spine 53.034951 -44.678098 -37.863940
RightShoulder -15.984471 -15.111894 -15.178202
RightArm 17.950795 -44.199882 70.990031
RightForeArm 6.816302 -0.000000 24.735881
RightHand 1.045542 -0.000000 1.572837
RightHandThumb1 -24.326973 -0.000000 -32.862282
LeftShoulder 2.228435 -20.418290 25.568029
LeftArm 67.186241 62.578578 -10.799577
LeftForeArm 26.727554 -0.000000 73.892392
LeftHand 7.182720 -0.000000 -17.654448
LeftHandThumb1 -26.253704 0.000000 33.147579
Head -14.910073 -64.256927 19.107559
2894
root -2.028355 3.315680 -9.420379 -28.395724 -22.038770 0.031366
RightUpLeg -75.671344 31.056557 58.716146
RightLeg 109.836275 -0.000000 -0.000000
RightFoot 16.021308 -2.574779 -13.934376
RightToeBase 3.356904 -0.000000 -0.000000
LeftUpLeg -55.914925 11.409546 15.167715
LeftLeg 2.017523 -0.000000 -0.000000
LeftFoot 22.872877 7.566475 -12.094977
LeftToeBase -0.129886 -0.000000 0.000000
Spine 53.009660 -44.669350 -37.831821
RightShoulder -15.961698 -15.113553 -15.199699
RightArm 17.859921 -44.065917 71.194628
RightForeArm 6.655441 -0.000000 24.595241
RightHand 1.089236 0.000000 1.427334
RightHandThumb1 -24.326973 -0.000000 -32.862282
LeftShoulder 2.244488 -20.435463 25.557029
LeftArm 67.185098 62.566088 -10.802369
LeftForeArm 26.655749 -0.000000 73.905531
LeftHand 7.178948 -0.000000 -17.669183
LeftHandThumb1 -26.253704 0.000000 33.147579
Head -15.019816 -64.226027 19.192430
2895
root -2.028319 3.315651 -9.419282 -28.373680 -22.029271 0.022199
RightUpLeg -75.684320 31.057120 58.719882
RightLeg 109.839816 -0.000000 -0.000000
RightFoot 16.011378 -2.580258 -13.980492
RightToeBase 3.352573 -0.000000 -0.000000
LeftUpLeg -55.943747 11.418497 15.144681
LeftLeg 2.021194 -0.000000 -0.000000
LeftFoot 22.875789 7.582439 -12.086381
LeftToeBase -0.161502 -0.000000 0.000000
Spine 52.994172 -44.663625 -37.805668
RightShoulder -15.932451 -15.106411 -15.223317
RightArm 17.750359 -43.885849 71.440610
RightForeArm 6.546948 -0.000000 24.421185
RightHand 1.167198 0.000000 1.271522
RightHandThumb1 -24.326973 -0.000000 -32.862282
LeftShoulder 2.243994 -20.435091 25.554120
LeftArm 67.244355 62.531201 -10.763221
LeftForeArm 26.608082 -0.000000 73.911571
LeftHand 7.175367 -0.000000 -17.675532
LeftHandThumb1 -26.253704 0.000000 33.147579
Head -15.142704 -64.201107 19.285544
2896
root -2.029405 3.315559 -9.419201 -28.343060 -22.025279 0.003008
RightUpLeg -75.689883 31.060608 58.734924
RightLeg 109.835665 -0.000000 -0.000000
RightFoot 16.000705 -2.596737 -14.002010
RightToeBase 3.324503 -0.000000 -0.000000
LeftUpLeg -55.971407 11.429950 15.136038
LeftLeg 2.012564 -0.000000 -0.000000
LeftFoot 22.878127 7.610393 -12.114113
LeftToeBase -0.189494 -0.000000 0.000000
Spine 52.982745 -44.667023 -37.776994
RightShoulder -15.894272 -15.061119 -15.257101
RightArm 17.528613 -43.612142 71.807174
RightForeArm 6.300095 -0.000000 24.248275
RightHand 1.287351 -0.000000 1.104073
RightHandThumb1 -24.326973 -0.000000 -32.862282
LeftShoulder 2.228983 -20.475921 25.552189
LeftArm 67.327126 62.542470 -10.694296
LeftForeArm 26.597178 -0.000000 73.919741
LeftHand 7.189502 0.000000 -17.659351
LeftHandThumb1 -26.253704 0.000000 33.147579
Head -15.277302 -64.177314 19.396598
2897
root -2.029419 3.315843 -9.418289 -28.317805 -22.025657 -0.014484
RightUpLeg -75.693705 31.052380 58.757490
RightLeg 109.836669 -0.000000 -0.000000
RightFoot 15.987085 -2.603745 -14.049574
RightToeBase 3.442568 -0.000000 -0.000000
LeftUpLeg -55.997236 11.433432 15.138620
LeftLeg 2.018368 -0.000000 -0.000000
LeftFoot 22.862143 7.630353 -12.098431
LeftToeBase -0.193784 -0.000000 0.000000
Spine 52.963033 -44.654613 -37.731934
RightShoulder -15.866123 -15.026491 -15.289955
RightArm 17.342700 -43.354661 72.165635
RightForeArm 6.064165 -0.000000 24.031780
RightHand 1.426887 -0.000000 0.825414
RightHandThumb1 -24.326973 -0.000000 -32.862282
LeftShoulder 2.232860 -20.501065 25.559575
LeftArm 67.379630 62.533527 -10.680653
LeftForeArm 26.604563 -0.000000 73.919744
LeftHand 7.173974 0.000000 -17.644673
LeftHandThumb1 -26.253704 0.000000 33.147579
Head -15.407690 -64.178134 19.507386
2898
root -2.029071 3.315668 -9.417639 -28.285486 -22.023391 -0.024154
RightUpLeg -75.707589 31.059952 58.761092
RightLeg 109.837538 -0.000000 -0.000000
RightFoot 15.977365 -2.613660 -14.049248
RightToeBase 3.392213 -0.000000 -0.000000
LeftUpLeg -56.030633 11.438770 15.134351
LeftLeg 2.019797 -0.000000 -0.000000
LeftFoot 22.854488 7.660589 -12.140321
LeftToeBase -0.187164 -0.000000 0.000000
Spine 52.934850 -44.651119 -37.691151
RightShoulder -15.851987 -15.028790 -15.320220
RightArm 17.218112 -43.063125 72.521279
RightForeArm 5.845191 -0.000000 23.778438
RightHand 1.532586 -0.000000 0.552912
RightHandThumb1 -24.326973 -0.000000 -32.862282
LeftShoulder 2.233688 -20.528698 25.566956
LeftArm 67.467011 62.530714 -10.626841
LeftForeArm 26.619752 -0.000000 73.920566
LeftHand 7.176051 -0.000000 -17.604551
LeftHandThumb1 -26.253704 0.000000 33.147579
Head -15.538483 -64.158337 19.622453
2899
root -2.028823 3.316350 -9.417152 -28.252640 -22.020666 -0.034149
RightUpLeg -75.720620 31.064725 58.769443
RightLeg 109.841349 -0.000000 -0.000000
RightFoot 15.961005 -2.614573 -14.085388
RightToeBase 3.388017 -0.000000 -0.000000
LeftUpLeg -56.057097 11.439206 15.136578
LeftLeg 2.011768 -0.000000 -0.000000
LeftFoot 22.858260 7.663254 -12.135456
LeftToeBase -0.167571 -0.000000 0.000000
Spine 52.897084 -44.637127 -37.641975
RightShoulder -15.834692 -14.989899 -15.328568
RightArm 16.932665 -42.683788 72.956655
RightForeArm 5.475241 -0.000000 23.628272
RightHand 1.619133 -0.000000 0.068584
RightHandThumb1 -24.326973 -0.000000 -32.862282
LeftShoulder 2.247740 -20.563105 25.562632
LeftArm 67.549656 62.532429 -10.579399
LeftForeArm 26.645175 -0.000000 73.914115
LeftHand 7.151332 -0.000000 -17.576833
LeftHandThumb1 -26.253704 0.000000 33.147579
Head -15.662447 -64.156033 19.746801
2900
root -2.028761 3.316544 -9.416142 -28.209397 -22.017415 -0.046394
RightUpLeg -75.737600 31.078223 58.775991
RightLeg 109.846160 -0.000000 -0.000000
RightFoot 15.945828 -2.619755 -14.134255
RightToeBase 3.361607 -0.000000 -0.000000
LeftUpLeg -56.096430 11.437716 15.144334
LeftLeg 2.009901 -0.000000 -0.000000
LeftFoot 22.864122 7.659994 -12.151163
LeftToeBase -0.197426 -0.000000 0.000000
Spine 52.852871 -44.650410 -37.595934
RightShoulder -15.801884 -14.959490 -15.355369
RightArm 16.712082 -42.363013 73.359496
RightForeArm 5.204623 -0.000000 23.416931
RightHand 1.690419 -0.000000 -0.255295
RightHandThumb1 -24.326973 -0.000000 -32.862282
LeftShoulder 2.255882 -20.569822 25.543716
LeftArm 67.634975 62.511585 -10.513739
LeftForeArm 26.626524 0.000000 73.909109
LeftHand 7.162310 -0.000000 -17.609197
LeftHandThumb1 -26.253704 0.000000 33.147579
Head -15.784719 -64.178681 19.849741
2901
root -2.029028 3.316946 -9.414936 -28.179450 -22.008787 -0.057121
RightUpLeg -75.750499 31.081268 58.777762
RightLeg 109.845292 -0.000000 -0.000000
RightFoot 15.935845 -2.629432 -14.147995
RightToeBase 3.340426 -0.000000 -0.000000
LeftUpLeg -56.123579 11.434866 15.139826
LeftLeg 2.002828 -0.000000 -0.000000
LeftFoot 22.887352 7.627947 -12.143640
LeftToeBase -0.229416 -0.000000 0.000000
Spine 52.831224 -44.646267 -37.567591
RightShoulder -15.794541 -14.939008 -15.354459
RightArm 16.558034 -42.090430 73.688502
RightForeArm 5.045941 -0.000000 23.180374
RightHand 1.951248 -0.000000 -0.333218
RightHandThumb1 -24.326973 -0.000000 -32.862282
LeftShoulder 2.259561 -20.619055 25.551822
LeftArm 67.721775 62.534538 -10.468551
LeftForeArm 26.645971 -0.000000 73.886769
LeftHand 7.172855 -0.000000 -17.587928
LeftHandThumb1 -26.253704 0.000000 33.147579
Head -15.909756 -64.158429 19.973045
